<mxfile host="Electron" modified="2025-06-06T16:52:38.794Z" agent="Mozilla/5.0 (Windows NT 10.0; Win64; x64) AppleWebKit/537.36 (KHTML, like Gecko) draw.io/24.2.5 Chrome/120.0.6099.109 Electron/28.1.0 Safari/537.36" etag="hZ2jDZ5PVJGg2zS6gCqF" version="24.2.5" type="device">
  <diagram name="Page-1" id="Kfh8t_Ak4ihm8aRNfu7Z">
    <mxGraphModel dx="1292" dy="944" grid="1" gridSize="10" guides="1" tooltips="1" connect="1" arrows="1" fold="1" page="1" pageScale="1" pageWidth="850" pageHeight="1100" math="0" shadow="0">
      <root>
        <mxCell id="0" />
        <mxCell id="1" parent="0" />
        <mxCell id="OEtIv18NF1MfXvZT3ipg-42" value="&lt;font style=&quot;font-size: 25px;&quot;&gt;Internet&lt;/font&gt;&lt;div style=&quot;font-size: 25px;&quot;&gt;&lt;font style=&quot;font-size: 25px;&quot;&gt;172.20.20.128/25&lt;/font&gt;&lt;/div&gt;" style="ellipse;shape=cloud;whiteSpace=wrap;html=1;" vertex="1" parent="1">
          <mxGeometry x="170" y="120" width="320" height="150" as="geometry" />
        </mxCell>
        <mxCell id="OEtIv18NF1MfXvZT3ipg-43" value="&lt;font style=&quot;font-size: 20px;&quot;&gt;Router3&lt;/font&gt;" style="sketch=0;points=[[0.5,0,0],[1,0.5,0],[0.5,1,0],[0,0.5,0],[0.145,0.145,0],[0.8555,0.145,0],[0.855,0.8555,0],[0.145,0.855,0]];verticalLabelPosition=bottom;html=1;verticalAlign=top;aspect=fixed;align=center;pointerEvents=1;shape=mxgraph.cisco19.rect;prIcon=router;fillColor=#FAFAFA;strokeColor=#005073;" vertex="1" parent="1">
          <mxGeometry x="280" y="390" width="130" height="130" as="geometry" />
        </mxCell>
        <mxCell id="OEtIv18NF1MfXvZT3ipg-45" value="&lt;font style=&quot;font-size: 20px;&quot;&gt;Router1&lt;/font&gt;" style="sketch=0;points=[[0.5,0,0],[1,0.5,0],[0.5,1,0],[0,0.5,0],[0.145,0.145,0],[0.8555,0.145,0],[0.855,0.8555,0],[0.145,0.855,0]];verticalLabelPosition=bottom;html=1;verticalAlign=top;aspect=fixed;align=center;pointerEvents=1;shape=mxgraph.cisco19.rect;prIcon=router;fillColor=#FAFAFA;strokeColor=#005073;" vertex="1" parent="1">
          <mxGeometry x="280" y="740" width="130" height="130" as="geometry" />
        </mxCell>
        <mxCell id="OEtIv18NF1MfXvZT3ipg-46" value="" style="endArrow=none;html=1;rounded=0;entryX=0.55;entryY=0.95;entryDx=0;entryDy=0;entryPerimeter=0;exitX=0.5;exitY=0;exitDx=0;exitDy=0;exitPerimeter=0;strokeWidth=5;" edge="1" parent="1" source="OEtIv18NF1MfXvZT3ipg-43" target="OEtIv18NF1MfXvZT3ipg-42">
          <mxGeometry width="50" height="50" relative="1" as="geometry">
            <mxPoint x="390" y="440" as="sourcePoint" />
            <mxPoint x="570" y="260" as="targetPoint" />
          </mxGeometry>
        </mxCell>
        <mxCell id="OEtIv18NF1MfXvZT3ipg-47" value="" style="endArrow=none;html=1;rounded=0;entryX=0.5;entryY=1;entryDx=0;entryDy=0;entryPerimeter=0;exitX=0.5;exitY=0;exitDx=0;exitDy=0;exitPerimeter=0;strokeWidth=5;" edge="1" parent="1" source="OEtIv18NF1MfXvZT3ipg-45" target="OEtIv18NF1MfXvZT3ipg-43">
          <mxGeometry width="50" height="50" relative="1" as="geometry">
            <mxPoint x="590" y="627" as="sourcePoint" />
            <mxPoint x="591" y="500" as="targetPoint" />
          </mxGeometry>
        </mxCell>
        <mxCell id="OEtIv18NF1MfXvZT3ipg-48" value="" style="endArrow=none;html=1;rounded=0;exitX=0.8555;exitY=0.145;exitDx=0;exitDy=0;exitPerimeter=0;strokeWidth=5;entryX=0.145;entryY=0.145;entryDx=0;entryDy=0;entryPerimeter=0;" edge="1" parent="1" source="OEtIv18NF1MfXvZT3ipg-45" target="OEtIv18NF1MfXvZT3ipg-49">
          <mxGeometry width="50" height="50" relative="1" as="geometry">
            <mxPoint x="610" y="770" as="sourcePoint" />
            <mxPoint x="850" y="760" as="targetPoint" />
          </mxGeometry>
        </mxCell>
        <mxCell id="OEtIv18NF1MfXvZT3ipg-49" value="&lt;font style=&quot;font-size: 20px;&quot;&gt;Router2&lt;/font&gt;" style="sketch=0;points=[[0.5,0,0],[1,0.5,0],[0.5,1,0],[0,0.5,0],[0.145,0.145,0],[0.8555,0.145,0],[0.855,0.8555,0],[0.145,0.855,0]];verticalLabelPosition=bottom;html=1;verticalAlign=top;aspect=fixed;align=center;pointerEvents=1;shape=mxgraph.cisco19.rect;prIcon=router;fillColor=#FAFAFA;strokeColor=#005073;" vertex="1" parent="1">
          <mxGeometry x="910" y="740" width="130" height="130" as="geometry" />
        </mxCell>
        <mxCell id="OEtIv18NF1MfXvZT3ipg-50" value="" style="endArrow=none;html=1;rounded=0;exitX=0.855;exitY=0.8555;exitDx=0;exitDy=0;exitPerimeter=0;strokeWidth=5;entryX=0.145;entryY=0.855;entryDx=0;entryDy=0;entryPerimeter=0;" edge="1" parent="1" source="OEtIv18NF1MfXvZT3ipg-45" target="OEtIv18NF1MfXvZT3ipg-49">
          <mxGeometry width="50" height="50" relative="1" as="geometry">
            <mxPoint x="425" y="880" as="sourcePoint" />
            <mxPoint x="963" y="880" as="targetPoint" />
          </mxGeometry>
        </mxCell>
        <mxCell id="OEtIv18NF1MfXvZT3ipg-51" value="" style="endArrow=none;html=1;rounded=0;exitX=0.5;exitY=0;exitDx=0;exitDy=0;exitPerimeter=0;strokeWidth=5;entryX=0.5;entryY=1;entryDx=0;entryDy=0;entryPerimeter=0;" edge="1" parent="1" source="OEtIv18NF1MfXvZT3ipg-49" target="OEtIv18NF1MfXvZT3ipg-52">
          <mxGeometry width="50" height="50" relative="1" as="geometry">
            <mxPoint x="1000" y="610" as="sourcePoint" />
            <mxPoint x="975" y="530" as="targetPoint" />
          </mxGeometry>
        </mxCell>
        <mxCell id="OEtIv18NF1MfXvZT3ipg-52" value="&lt;font style=&quot;font-size: 20px;&quot;&gt;Switch&lt;/font&gt;" style="sketch=0;points=[[0.015,0.015,0],[0.985,0.015,0],[0.985,0.985,0],[0.015,0.985,0],[0.25,0,0],[0.5,0,0],[0.75,0,0],[1,0.25,0],[1,0.5,0],[1,0.75,0],[0.75,1,0],[0.5,1,0],[0.25,1,0],[0,0.75,0],[0,0.5,0],[0,0.25,0]];verticalLabelPosition=bottom;html=1;verticalAlign=top;aspect=fixed;align=center;pointerEvents=1;shape=mxgraph.cisco19.rect;prIcon=l2_switch;fillColor=#FAFAFA;strokeColor=#005073;" vertex="1" parent="1">
          <mxGeometry x="885" y="310" width="180" height="180" as="geometry" />
        </mxCell>
        <mxCell id="OEtIv18NF1MfXvZT3ipg-53" value="&lt;font style=&quot;font-size: 18px;&quot;&gt;E0/1&lt;/font&gt;&lt;div style=&quot;font-size: 18px;&quot;&gt;&lt;font style=&quot;font-size: 18px;&quot;&gt;.3&lt;/font&gt;&lt;/div&gt;" style="text;html=1;align=center;verticalAlign=middle;resizable=0;points=[];autosize=1;strokeColor=none;fillColor=none;" vertex="1" parent="1">
          <mxGeometry x="350" y="330" width="60" height="60" as="geometry" />
        </mxCell>
        <mxCell id="OEtIv18NF1MfXvZT3ipg-54" value="&lt;font style=&quot;font-size: 18px;&quot;&gt;E0/0&lt;/font&gt;&lt;div style=&quot;font-size: 18px;&quot;&gt;&lt;font style=&quot;font-size: 18px;&quot;&gt;.3&lt;/font&gt;&lt;/div&gt;" style="text;html=1;align=center;verticalAlign=middle;resizable=0;points=[];autosize=1;strokeColor=none;fillColor=none;" vertex="1" parent="1">
          <mxGeometry x="250" y="530" width="60" height="60" as="geometry" />
        </mxCell>
        <mxCell id="OEtIv18NF1MfXvZT3ipg-55" value="&lt;span style=&quot;font-size: 18px;&quot;&gt;10.10.254.0/24&lt;/span&gt;" style="text;html=1;align=center;verticalAlign=middle;resizable=0;points=[];autosize=1;strokeColor=none;fillColor=none;" vertex="1" parent="1">
          <mxGeometry x="195" y="300" width="140" height="40" as="geometry" />
        </mxCell>
        <mxCell id="OEtIv18NF1MfXvZT3ipg-56" value="&lt;span style=&quot;font-size: 18px;&quot;&gt;10.10.13.0/24&lt;/span&gt;" style="text;html=1;align=center;verticalAlign=middle;resizable=0;points=[];autosize=1;strokeColor=none;fillColor=none;" vertex="1" parent="1">
          <mxGeometry x="200" y="610" width="130" height="40" as="geometry" />
        </mxCell>
        <mxCell id="OEtIv18NF1MfXvZT3ipg-57" value="&lt;font style=&quot;font-size: 18px;&quot;&gt;E0/0&lt;/font&gt;&lt;div style=&quot;font-size: 18px;&quot;&gt;&lt;font style=&quot;font-size: 18px;&quot;&gt;.1&lt;/font&gt;&lt;/div&gt;" style="text;html=1;align=center;verticalAlign=middle;resizable=0;points=[];autosize=1;strokeColor=none;fillColor=none;" vertex="1" parent="1">
          <mxGeometry x="260" y="680" width="60" height="60" as="geometry" />
        </mxCell>
        <mxCell id="OEtIv18NF1MfXvZT3ipg-58" value="&lt;font style=&quot;font-size: 18px;&quot;&gt;E0/2&lt;/font&gt;&lt;div style=&quot;font-size: 18px;&quot;&gt;&lt;font style=&quot;font-size: 18px;&quot;&gt;.129&lt;/font&gt;&lt;/div&gt;" style="text;html=1;align=center;verticalAlign=middle;resizable=0;points=[];autosize=1;strokeColor=none;fillColor=none;" vertex="1" parent="1">
          <mxGeometry x="390" y="690" width="60" height="60" as="geometry" />
        </mxCell>
        <mxCell id="OEtIv18NF1MfXvZT3ipg-59" value="&lt;font style=&quot;font-size: 18px;&quot;&gt;E0/1&lt;/font&gt;&lt;div style=&quot;font-size: 18px;&quot;&gt;&lt;font style=&quot;font-size: 18px;&quot;&gt;.1&lt;/font&gt;&lt;/div&gt;" style="text;html=1;align=center;verticalAlign=middle;resizable=0;points=[];autosize=1;strokeColor=none;fillColor=none;" vertex="1" parent="1">
          <mxGeometry x="395" y="870" width="60" height="60" as="geometry" />
        </mxCell>
        <mxCell id="OEtIv18NF1MfXvZT3ipg-60" value="&lt;span style=&quot;font-size: 18px;&quot;&gt;LO: 10.10.1.1/32&lt;/span&gt;" style="text;html=1;align=center;verticalAlign=middle;resizable=0;points=[];autosize=1;strokeColor=none;fillColor=none;" vertex="1" parent="1">
          <mxGeometry x="100" y="810" width="160" height="40" as="geometry" />
        </mxCell>
        <mxCell id="OEtIv18NF1MfXvZT3ipg-61" value="&lt;span style=&quot;font-size: 18px;&quot;&gt;10.10.12.128/25&lt;/span&gt;" style="text;html=1;align=center;verticalAlign=middle;resizable=0;points=[];autosize=1;strokeColor=none;fillColor=none;" vertex="1" parent="1">
          <mxGeometry x="560" y="710" width="150" height="40" as="geometry" />
        </mxCell>
        <mxCell id="OEtIv18NF1MfXvZT3ipg-62" value="&lt;span style=&quot;font-size: 18px;&quot;&gt;10.10.12.0/25&lt;/span&gt;" style="text;html=1;align=center;verticalAlign=middle;resizable=0;points=[];autosize=1;strokeColor=none;fillColor=none;" vertex="1" parent="1">
          <mxGeometry x="580" y="860" width="130" height="40" as="geometry" />
        </mxCell>
        <mxCell id="OEtIv18NF1MfXvZT3ipg-63" value="&lt;font style=&quot;font-size: 18px;&quot;&gt;E0/2&lt;/font&gt;&lt;div style=&quot;font-size: 18px;&quot;&gt;&lt;font style=&quot;font-size: 18px;&quot;&gt;.130&lt;/font&gt;&lt;/div&gt;" style="text;html=1;align=center;verticalAlign=middle;resizable=0;points=[];autosize=1;strokeColor=none;fillColor=none;" vertex="1" parent="1">
          <mxGeometry x="870" y="700" width="60" height="60" as="geometry" />
        </mxCell>
        <mxCell id="OEtIv18NF1MfXvZT3ipg-64" value="&lt;font style=&quot;font-size: 18px;&quot;&gt;E0/1&lt;/font&gt;&lt;div style=&quot;font-size: 18px;&quot;&gt;&lt;font style=&quot;font-size: 18px;&quot;&gt;.2&lt;/font&gt;&lt;/div&gt;" style="text;html=1;align=center;verticalAlign=middle;resizable=0;points=[];autosize=1;strokeColor=none;fillColor=none;" vertex="1" parent="1">
          <mxGeometry x="850" y="870" width="60" height="60" as="geometry" />
        </mxCell>
        <mxCell id="OEtIv18NF1MfXvZT3ipg-65" value="&lt;span style=&quot;font-size: 18px;&quot;&gt;10.10.31.0/24&lt;/span&gt;" style="text;html=1;align=center;verticalAlign=middle;resizable=0;points=[];autosize=1;strokeColor=none;fillColor=none;" vertex="1" parent="1">
          <mxGeometry x="1000" y="590" width="130" height="40" as="geometry" />
        </mxCell>
        <mxCell id="OEtIv18NF1MfXvZT3ipg-66" value="&lt;font style=&quot;font-size: 18px;&quot;&gt;E0/0&lt;/font&gt;&lt;div style=&quot;font-size: 18px;&quot;&gt;&lt;font style=&quot;font-size: 18px;&quot;&gt;.1&lt;/font&gt;&lt;/div&gt;" style="text;html=1;align=center;verticalAlign=middle;resizable=0;points=[];autosize=1;strokeColor=none;fillColor=none;" vertex="1" parent="1">
          <mxGeometry x="1020" y="490" width="60" height="60" as="geometry" />
        </mxCell>
        <mxCell id="OEtIv18NF1MfXvZT3ipg-67" value="&lt;font style=&quot;font-size: 18px;&quot;&gt;E0/1: 192.168.0.1/24&lt;/font&gt;&lt;div&gt;&lt;font style=&quot;font-size: 18px;&quot;&gt;Connected to LAN&lt;/font&gt;&lt;/div&gt;" style="text;html=1;align=center;verticalAlign=middle;resizable=0;points=[];autosize=1;strokeColor=none;fillColor=none;strokeWidth=2;" vertex="1" parent="1">
          <mxGeometry x="880" y="250" width="190" height="60" as="geometry" />
        </mxCell>
        <mxCell id="OEtIv18NF1MfXvZT3ipg-70" value="&lt;span style=&quot;font-size: 18px;&quot;&gt;Please note that the dot notation here&lt;/span&gt;&lt;div&gt;&lt;span style=&quot;font-size: 18px;&quot;&gt;It&#39;s just easier&lt;/span&gt;&lt;/div&gt;&lt;div&gt;&lt;span style=&quot;font-size: 18px;&quot;&gt;&lt;br&gt;&lt;/span&gt;&lt;/div&gt;&lt;div&gt;&lt;span style=&quot;font-size: 18px;&quot;&gt;For example on Router 3&lt;/span&gt;&lt;/div&gt;&lt;div&gt;&lt;span style=&quot;font-size: 18px;&quot;&gt;&lt;br&gt;&lt;/span&gt;&lt;/div&gt;&lt;div&gt;&lt;span style=&quot;font-size: 18px;&quot;&gt;On&amp;nbsp;&lt;/span&gt;&lt;/div&gt;&lt;div&gt;&lt;span style=&quot;font-size: 18px;&quot;&gt;interface E0/1 the IP = &lt;font color=&quot;#ff0000&quot;&gt;10.10.254.3/24&lt;/font&gt;&lt;/span&gt;&lt;/div&gt;&lt;div&gt;&lt;span style=&quot;font-size: 18px;&quot;&gt;&amp;amp;&lt;/span&gt;&lt;/div&gt;&lt;div&gt;&lt;span style=&quot;font-size: 18px;&quot;&gt;interface E0/0 the IP = &lt;font color=&quot;#ff0000&quot;&gt;10.10.13.3/24&lt;/font&gt;&lt;/span&gt;&lt;/div&gt;" style="text;html=1;align=center;verticalAlign=middle;resizable=0;points=[];autosize=1;strokeColor=default;fillColor=none;" vertex="1" parent="1">
          <mxGeometry x="480" y="330" width="330" height="210" as="geometry" />
        </mxCell>
      </root>
    </mxGraphModel>
  </diagram>
</mxfile>
